# xmcd CD database file
#
# Track frame offsets:
#	150
#	27692
#	50613
#	82076
#	93431
#	102464
#	123588
#	137560
#	172503
#	205563
#	218098
#	246237
#
# Disc length: 3661 seconds
#
# Revision: 0
# Processed by: cddbd v1.5.2PL0 Copyright (c) Steve Scherf et al.
# Submitted via: CDex 1.51
#
DISCID=a50e4b0c
DTITLE=Enrico Pieranunzi - One Lone Star
DYEAR=2002
DGENRE=Jazz
TTITLE0=Downtown
TTITLE1=The night gone by
TTITLE2=What's what
TTITLE3=Improscope 1
TTITLE4=Improscope 2
TTITLE5=Blue Rose for Rosario
TTITLE6=Improscope 3
TTITLE7=The lover's cry
TTITLE8=Call it love
TTITLE9=Improscope 4
TTITLE10=The surprise answer
TTITLE11=One lone star
EXTD=YEAR: 2002
EXTT0=
EXTT1=
EXTT2=
EXTT3=
EXTT4=
EXTT5=
EXTT6=
EXTT7=
EXTT8=
EXTT9=
EXTT10=
EXTT11=
PLAYORDER=
